<svg width="22" height="22" viewBox="0 0 22 22" fill="none" xmlns="http://www.w3.org/2000/svg">
<g clip-path="url(#clip0_9150_4426)">
<path d="M4.7002 9.20792V9.05025C4.7002 5.57058 7.52078 2.75 11.0004 2.75C14.4801 2.75 17.3007 5.57058 17.3007 9.05025V9.20792C17.3007 12.3805 13.2839 17.1563 11.665 18.953C11.3084 19.349 10.6924 19.349 10.3359 18.953C8.71703 17.1563 4.7002 12.3805 4.7002 9.20792V9.20792Z" stroke="#292929" stroke-linecap="round" stroke-linejoin="round"/>
<path d="M9.16699 9.12531C9.16699 10.1382 9.98741 10.9586 11.0003 10.9586C12.0132 10.9586 12.8337 10.1382 12.8337 9.12531V9.09139C12.8337 8.07847 12.0132 7.25806 11.0003 7.25806C9.98741 7.25806 9.16699 8.07847 9.16699 9.09139" stroke="#292929" stroke-linecap="round" stroke-linejoin="round"/>
</g>
<defs>
<clipPath id="clip0_9150_4426">
<rect width="22" height="22" fill="white"/>
</clipPath>
</defs>
</svg>
