<svg width="24" height="24" viewBox="0 0 24 24" fill="none" xmlns="http://www.w3.org/2000/svg">
<g id="logo-youtube 1" clip-path="url(#clip0_9174_5805)">
<path id="Vector" d="M23.8409 6.975C23.8409 4.86563 22.2894 3.16875 20.3722 3.16875C17.7753 3.04687 15.1269 3 12.4222 3H11.5784C8.87842 3 6.22529 3.04687 3.62842 3.16875C1.71592 3.16875 0.164355 4.875 0.164355 6.98438C0.0471676 8.65312 -0.00439487 10.3219 0.000292631 11.9906C-0.00439487 13.6594 0.0471676 15.3281 0.159668 17.0016C0.159668 19.1109 1.71123 20.8219 3.62373 20.8219C6.35186 20.9484 9.15029 21.0047 11.9956 21C14.8456 21.0094 17.6347 20.9531 20.3675 20.8219C22.2847 20.8219 23.8362 19.1109 23.8362 17.0016C23.9487 15.3281 24.0003 13.6594 23.9956 11.9859C24.005 10.3172 23.9534 8.64844 23.8409 6.975ZM9.70342 16.5891V7.37812L16.5003 11.9813L9.70342 16.5891Z" fill="#4E2D2D"/>
</g>
<defs>
<clipPath id="clip0_9174_5805">
<rect width="24" height="24" fill="white"/>
</clipPath>
</defs>
</svg>
