<svg width="18" height="18" viewBox="0 0 18 18" fill="none" xmlns="http://www.w3.org/2000/svg">
<path d="M8.14162 9.858C7.26412 8.9805 6.60262 7.998 6.16312 7.00125C6.07012 6.7905 6.12487 6.54375 6.28762 6.381L6.90187 5.7675C7.40512 5.26425 7.40512 4.5525 6.96562 4.113L6.08512 3.2325C5.49937 2.64675 4.54987 2.64675 3.96412 3.2325L3.47512 3.7215C2.91937 4.27725 2.68762 5.079 2.83762 5.874C3.20812 7.83375 4.34662 9.9795 6.18337 11.8163C8.02012 13.653 10.1659 14.7915 12.1256 15.162C12.9206 15.312 13.7224 15.0803 14.2781 14.5245L14.7664 14.0363C15.3521 13.4505 15.3521 12.501 14.7664 11.9153L13.8866 11.0355C13.4471 10.596 12.7346 10.596 12.2959 11.0355L11.6186 11.7135C11.4559 11.8763 11.2091 11.931 10.9984 11.838C10.0016 11.3978 9.01912 10.7355 8.14162 9.858V9.858Z" stroke="#FD9339" stroke-linecap="round" stroke-linejoin="round"/>
</svg>
