<svg width="231" height="42" viewBox="0 0 231 42" fill="none" xmlns="http://www.w3.org/2000/svg">
<path d="M49.2229 22.9103C46.863 22.9103 44.8744 22.1193 43.31 20.5372C41.7456 18.9552 40.9502 17.004 40.9502 14.6573V14.6045C40.9502 12.2842 41.7456 10.3066 43.3365 8.72458C44.9274 7.11615 46.9426 6.32513 49.3819 6.32513C51.9539 6.32513 54.0751 7.14252 55.7455 8.80368L53.4918 11.3877C52.113 10.1748 50.7607 9.56834 49.3554 9.56834C48.0297 9.56834 46.9161 10.043 46.0146 11.0186C45.113 11.9942 44.6888 13.1807 44.6888 14.5518V14.6045C44.6888 16.002 45.1396 17.2149 46.0146 18.1905C46.8895 19.1661 48.0032 19.6671 49.3819 19.6671C50.2304 19.6671 50.9994 19.5089 51.6357 19.2189C52.2721 18.9025 52.9349 18.4278 53.6243 17.795L55.8781 20.0626C54.9766 21.0382 54.0221 21.7501 53.0145 22.2248C51.9539 22.673 50.7077 22.9103 49.2229 22.9103Z" fill="#4E2D2D"/>
<path d="M58.6885 22.6217V6.59019H62.2415V11.6264H65.1051C67.0937 11.6264 68.6316 12.101 69.7717 13.0239C70.9119 13.9467 71.4687 15.2915 71.4687 17.0581V17.0845C71.4687 18.8247 70.9119 20.1695 69.7717 21.1714C68.6316 22.1734 67.0407 22.6744 64.9725 22.6744H58.6885V22.6217ZM62.2415 19.4576H65.0255C65.9271 19.4576 66.6164 19.2466 67.1202 18.8511C67.624 18.4556 67.8626 17.8755 67.8626 17.1108V17.0845C67.8626 16.3462 67.624 15.7925 67.1467 15.3706C66.6695 14.9751 65.9801 14.7641 65.0521 14.7641H62.2415V19.4576ZM73.802 22.6217V6.59019H77.355V22.648H73.802V22.6217Z" fill="#4E2D2D"/>
<path d="M81.2266 22.6217V6.59019H87.8288C89.7379 6.59019 91.2492 7.09117 92.3363 8.11951C93.45 9.14784 94.0068 10.4662 94.0068 12.1537V12.2065C94.0068 13.9995 93.3969 15.397 92.1507 16.3726C90.931 17.3482 89.3667 17.8491 87.4841 17.8491H84.7796V22.6744H81.2266V22.6217ZM84.7796 14.685H87.5902C88.4386 14.685 89.128 14.4477 89.6318 13.9995C90.1356 13.5512 90.4007 12.9711 90.4007 12.2592V12.2065C90.4007 11.4155 90.1356 10.8354 89.6318 10.4135C89.128 9.9916 88.4121 9.78066 87.5106 9.78066H84.7796V14.685Z" fill="#4E2D2D"/>
<path d="M110.605 20.4858C108.962 22.0942 106.92 22.9116 104.454 22.9116C101.988 22.9116 99.9464 22.1205 98.329 20.5121C96.7116 18.9037 95.8896 16.9525 95.8896 14.6585V14.6058C95.8896 12.2854 96.7116 10.3342 98.3555 8.72582C99.9995 7.1174 102.041 6.3 104.507 6.3C106.973 6.3 109.015 7.09103 110.632 8.69945C112.249 10.3079 113.071 12.2591 113.071 14.553V14.6058C113.071 16.9261 112.249 18.8773 110.605 20.4858ZM101.007 18.1918C101.935 19.1674 103.102 19.6684 104.507 19.6684C105.912 19.6684 107.079 19.1937 107.98 18.2181C108.882 17.2425 109.333 16.0824 109.333 14.6585V14.6058C109.333 13.2083 108.882 11.9954 107.954 11.0198C107.026 10.0442 105.859 9.54321 104.454 9.54321C103.049 9.54321 101.882 10.0178 100.981 10.9934C100.079 11.969 99.6283 13.1292 99.6283 14.553V14.6058C99.6283 16.0033 100.079 17.2162 101.007 18.1918Z" fill="#4E2D2D"/>
<path d="M116.227 22.6217V6.59019H123.73C125.586 6.59019 126.992 7.0648 127.946 8.01404C128.689 8.75233 129.06 9.64882 129.06 10.7299V10.7826C129.06 12.3647 128.344 13.4985 126.939 14.2368C127.946 14.6059 128.689 15.1069 129.192 15.7397C129.696 16.3462 129.961 17.1636 129.961 18.1919V18.2446C129.961 19.6685 129.431 20.7759 128.344 21.5142C127.257 22.2525 125.798 22.648 123.916 22.648H116.227V22.6217ZM125.507 11.3627V11.31C125.507 10.2025 124.738 9.64882 123.173 9.64882H119.674V13.0766H122.935C124.658 13.0766 125.507 12.4965 125.507 11.3627ZM126.408 17.7964V17.7437C126.408 16.5835 125.533 16.0034 123.783 16.0034H119.674V19.5367H123.889C125.586 19.5367 126.408 18.9566 126.408 17.7964Z" fill="#4E2D2D"/>
<path d="M131.499 22.6217L138.419 6.45843H141.681L148.601 22.6217H144.889L143.404 19.0094H136.59L135.105 22.6217H131.499ZM137.863 15.9244H142.158L139.984 10.7036L137.863 15.9244Z" fill="#4E2D2D"/>
<path d="M151.093 22.6217V6.59019H157.695C159.604 6.59019 161.115 7.09117 162.203 8.11951C163.316 9.14784 163.873 10.4662 163.873 12.1537V12.2065C163.873 13.9995 163.263 15.397 162.017 16.3726C160.797 17.3482 159.233 17.8491 157.35 17.8491H154.646V22.6744H151.093V22.6217ZM154.619 14.685H157.43C158.278 14.685 158.968 14.4477 159.471 13.9995C159.975 13.5512 160.24 12.9711 160.24 12.2592V12.2065C160.24 11.4155 159.975 10.8354 159.471 10.4135C158.968 9.9916 158.252 9.78066 157.35 9.78066H154.619V14.685Z" fill="#4E2D2D"/>
<path d="M166.472 22.6217V6.59019H178.642V9.72793H169.998V12.9711H177.608V16.1089H169.998V19.4839H178.748V22.6217H166.472Z" fill="#4E2D2D"/>
<path d="M181.931 22.6217V6.59019H185.484V12.9448H192.033V6.59019H195.586V22.648H192.033V16.188H185.484V22.6217H181.931Z" fill="#4E2D2D"/>
<path d="M213.802 22.6217H210.249V12.1537L202.586 22.6217H199.457V6.59019H203.01V16.7417L210.408 6.59019H213.802V22.6217Z" fill="#4E2D2D"/>
<path d="M217.672 22.6217V6.59019H229.842V9.72793H221.198V12.9711H228.808V16.1089H221.198V19.4839H229.948V22.6217H217.672Z" fill="#4E2D2D"/>
<path d="M41.9648 30.8058C41.9648 30.3063 42.0314 29.8431 42.1647 29.4162C42.2979 28.9893 42.4977 28.62 42.7641 28.3081C43.0305 27.9933 43.365 27.7466 43.7677 27.5679C44.1703 27.3893 44.6396 27.3 45.1755 27.3C45.6689 27.3 46.114 27.3893 46.5106 27.5679C46.9072 27.7466 47.2432 27.9933 47.5187 28.3081C47.7972 28.62 48.0107 28.9893 48.159 29.4162C48.3073 29.8431 48.3815 30.3063 48.3815 30.8058C48.3815 31.3023 48.3073 31.7655 48.159 32.1954C48.0107 32.6223 47.7972 32.9931 47.5187 33.308C47.2432 33.6198 46.9072 33.865 46.5106 34.0436C46.114 34.2223 45.6689 34.3116 45.1755 34.3116C44.6396 34.3116 44.1703 34.2223 43.7677 34.0436C43.365 33.865 43.0305 33.6198 42.7641 33.308C42.4977 32.9931 42.2979 32.6223 42.1647 32.1954C42.0314 31.7655 41.9648 31.3023 41.9648 30.8058ZM45.1755 33.1036C45.46 33.1036 45.7143 33.0461 45.9384 32.9311C46.1624 32.816 46.3516 32.6571 46.506 32.4542C46.6634 32.2484 46.783 32.0062 46.8648 31.7276C46.9465 31.4461 46.9874 31.1388 46.9874 30.8058C46.9874 30.4728 46.9465 30.167 46.8648 29.8885C46.783 29.6069 46.6634 29.3647 46.506 29.1619C46.3516 28.956 46.1624 28.7956 45.9384 28.6805C45.7143 28.5655 45.46 28.508 45.1755 28.508C44.8909 28.508 44.6366 28.5655 44.4125 28.6805C44.1885 28.7956 43.9978 28.956 43.8403 29.1619C43.6859 29.3647 43.5664 29.6069 43.4816 29.8885C43.3999 30.167 43.359 30.4728 43.359 30.8058C43.359 31.1388 43.3999 31.4461 43.4816 31.7276C43.5664 32.0062 43.6859 32.2484 43.8403 32.4542C43.9978 32.6571 44.1885 32.816 44.4125 32.9311C44.6366 33.0461 44.8909 33.1036 45.1755 33.1036Z" fill="#4E2D2D"/>
<path d="M53.731 27.3908C53.734 27.6451 53.6902 27.854 53.5993 28.0175C53.5085 28.178 53.3874 28.3081 53.236 28.408C53.0877 28.5049 52.9151 28.5761 52.7183 28.6215C52.5246 28.6639 52.3248 28.6926 52.1189 28.7078C51.9766 28.7199 51.8298 28.7396 51.6784 28.7668C51.527 28.791 51.3787 28.8304 51.2334 28.8849C51.0881 28.9363 50.9503 29.006 50.8201 29.0938C50.6899 29.1785 50.5734 29.2845 50.4705 29.4116C50.3675 29.5388 50.2828 29.6902 50.2162 29.8658C50.1495 30.0414 50.1087 30.2472 50.0935 30.4834C50.142 30.3259 50.2192 30.1776 50.3251 30.0383C50.4311 29.896 50.5628 29.7734 50.7202 29.6705C50.8807 29.5645 51.0654 29.4813 51.2742 29.4207C51.4831 29.3572 51.7147 29.3254 51.969 29.3254C52.3081 29.3254 52.6139 29.3829 52.8864 29.4979C53.1588 29.6099 53.3904 29.7689 53.5812 29.9748C53.7719 30.1806 53.9172 30.4289 54.0171 30.7195C54.12 31.0101 54.1715 31.3326 54.1715 31.6868C54.1715 32.0803 54.1125 32.4376 53.9944 32.7585C53.8794 33.0794 53.7129 33.3549 53.4949 33.585C53.2799 33.812 53.0165 33.9891 52.7047 34.1163C52.3929 34.2404 52.0417 34.3025 51.6512 34.3025C51.082 34.3025 50.6112 34.1859 50.2389 33.9528C49.8665 33.7197 49.5804 33.3398 49.3806 32.813C49.314 32.6344 49.2625 32.4452 49.2262 32.2453C49.1898 32.0455 49.1626 31.8578 49.1444 31.6822C49.1293 31.5066 49.1202 31.3538 49.1172 31.2236C49.1142 31.0934 49.1126 31.0071 49.1126 30.9647C49.1126 30.4924 49.1671 30.061 49.2761 29.6705C49.3851 29.2769 49.5577 28.9348 49.7938 28.6442C50.033 28.3536 50.3388 28.1189 50.7111 27.9403C51.0865 27.7617 51.5407 27.6482 52.0735 27.5997C52.243 27.5846 52.3626 27.5573 52.4322 27.518C52.5049 27.4756 52.5503 27.4332 52.5685 27.3908H53.731ZM50.4614 31.6686C50.4614 31.8563 50.4811 32.0425 50.5204 32.2272C50.5628 32.4088 50.6309 32.5723 50.7248 32.7176C50.8186 32.8599 50.9412 32.975 51.0926 33.0628C51.244 33.1505 51.4302 33.1944 51.6512 33.1944C51.8843 33.1944 52.0765 33.1521 52.2279 33.0673C52.3823 32.9795 52.5049 32.866 52.5957 32.7267C52.6866 32.5844 52.7501 32.4224 52.7865 32.2408C52.8228 32.0561 52.841 31.8654 52.841 31.6686C52.841 31.4749 52.8198 31.2932 52.7774 31.1237C52.735 30.9541 52.6684 30.8073 52.5776 30.6832C52.4867 30.556 52.3687 30.4576 52.2234 30.388C52.078 30.3153 51.9024 30.279 51.6966 30.279C51.4756 30.279 51.2864 30.3169 51.1289 30.3925C50.9745 30.4652 50.8474 30.5651 50.7475 30.6923C50.6476 30.8194 50.5749 30.9678 50.5295 31.1373C50.4841 31.3038 50.4614 31.4809 50.4614 31.6686Z" fill="#4E2D2D"/>
<path d="M54.7982 31.6686C54.7982 31.2872 54.8557 30.936 54.9708 30.6151C55.0888 30.2941 55.2569 30.0187 55.4748 29.7886C55.6958 29.5555 55.9622 29.3738 56.2741 29.2436C56.5859 29.1134 56.9371 29.0484 57.3276 29.0484C57.7242 29.0484 58.0784 29.1134 58.3903 29.2436C58.7051 29.3738 58.97 29.5555 59.185 29.7886C59.4029 30.0187 59.5695 30.2941 59.6845 30.6151C59.7995 30.936 59.8571 31.2872 59.8571 31.6686C59.8571 32.0501 59.7995 32.4013 59.6845 32.7222C59.5695 33.0431 59.4029 33.3201 59.185 33.5532C58.97 33.7863 58.7051 33.968 58.3903 34.0981C58.0784 34.2283 57.7242 34.2934 57.3276 34.2934C56.9371 34.2934 56.5859 34.2283 56.2741 34.0981C55.9622 33.968 55.6958 33.7863 55.4748 33.5532C55.2569 33.3201 55.0888 33.0431 54.9708 32.7222C54.8557 32.4013 54.7982 32.0501 54.7982 31.6686ZM56.1378 31.6686C56.1378 31.8563 56.1575 32.0425 56.1969 32.2272C56.2393 32.4088 56.3074 32.5723 56.4012 32.7176C56.4951 32.8599 56.6177 32.975 56.7691 33.0628C56.9204 33.1505 57.1066 33.1944 57.3276 33.1944C57.5577 33.1944 57.7484 33.1521 57.8998 33.0673C58.0542 32.9795 58.1768 32.866 58.2677 32.7267C58.3585 32.5844 58.4221 32.4224 58.4584 32.2408C58.4977 32.0561 58.5174 31.8654 58.5174 31.6686C58.5174 31.4749 58.4977 31.2856 58.4584 31.101C58.4221 30.9163 58.3585 30.7543 58.2677 30.6151C58.1768 30.4728 58.0542 30.3592 57.8998 30.2745C57.7484 30.1867 57.5577 30.1428 57.3276 30.1428C57.1066 30.1428 56.9204 30.1867 56.7691 30.2745C56.6177 30.3623 56.4951 30.4788 56.4012 30.6241C56.3074 30.7664 56.2393 30.9299 56.1969 31.1146C56.1575 31.2962 56.1378 31.4809 56.1378 31.6686Z" fill="#4E2D2D"/>
<path d="M60.7517 29.1937H61.9778V29.9021H61.996C62.0837 29.7537 62.1761 29.6266 62.273 29.5206C62.3698 29.4116 62.4773 29.3223 62.5954 29.2527C62.7135 29.1831 62.8436 29.1316 62.9859 29.0983C63.1312 29.065 63.2947 29.0484 63.4764 29.0484C63.6277 29.0484 63.7837 29.0665 63.9441 29.1028C64.1046 29.1392 64.2605 29.1982 64.4119 29.28C64.5663 29.3587 64.7116 29.4631 64.8478 29.5933C64.984 29.7204 65.1036 29.8779 65.2066 30.0656C65.3095 30.2533 65.3912 30.4728 65.4518 30.724C65.5123 30.9723 65.5426 31.2569 65.5426 31.5778C65.5426 31.9774 65.4987 32.3437 65.4109 32.6768C65.3261 33.0098 65.196 33.2959 65.0204 33.535C64.8478 33.7742 64.6283 33.9604 64.3619 34.0936C64.0985 34.2268 63.7882 34.2934 63.431 34.2934C63.3068 34.2934 63.1812 34.2813 63.054 34.2571C62.9269 34.2329 62.8028 34.192 62.6817 34.1345C62.5606 34.0769 62.4455 33.9997 62.3365 33.9029C62.2306 33.803 62.1367 33.6788 62.055 33.5305H62.0368V36.0599H60.7517V29.1937ZM63.0949 30.2018C62.8891 30.2018 62.715 30.2457 62.5727 30.3335C62.4334 30.4213 62.3199 30.5348 62.2321 30.6741C62.1473 30.8134 62.0853 30.9708 62.0459 31.1464C62.0065 31.322 61.9869 31.496 61.9869 31.6686C61.9869 31.7625 61.9914 31.8654 62.0005 31.9774C62.0126 32.0864 62.0338 32.1984 62.0641 32.3135C62.0943 32.4255 62.1352 32.5345 62.1867 32.6404C62.2412 32.7464 62.3093 32.8402 62.391 32.922C62.4728 33.0037 62.5712 33.0703 62.6862 33.1218C62.8013 33.1702 62.9375 33.1944 63.0949 33.1944C63.2523 33.1944 63.3886 33.1702 63.5036 33.1218C63.6187 33.0703 63.7171 33.0037 63.7988 32.922C63.8805 32.8402 63.9471 32.7464 63.9986 32.6404C64.0531 32.5345 64.0955 32.4255 64.1258 32.3135C64.156 32.1984 64.1757 32.0864 64.1848 31.9774C64.1969 31.8654 64.203 31.7625 64.203 31.6686C64.203 31.496 64.1833 31.322 64.1439 31.1464C64.1046 30.9708 64.041 30.8134 63.9532 30.6741C63.8684 30.5348 63.7549 30.4213 63.6126 30.3335C63.4703 30.2457 63.2978 30.2018 63.0949 30.2018Z" fill="#4E2D2D"/>
<path d="M69.1983 34.0618C69.1014 34.3464 69.0136 34.5931 68.9349 34.802C68.8562 35.0139 68.7774 35.1956 68.6987 35.347C68.623 35.5014 68.5413 35.627 68.4535 35.7239C68.3687 35.8238 68.2688 35.9025 68.1538 35.96C68.0387 36.0175 67.904 36.0569 67.7496 36.0781C67.5952 36.1023 67.4121 36.1144 67.2001 36.1144C67.1154 36.1144 67.0351 36.1114 66.9595 36.1053C66.8868 36.1023 66.799 36.0963 66.6961 36.0872V35.0472C66.7475 35.0533 66.8111 35.0594 66.8868 35.0654C66.9625 35.0715 67.0261 35.0745 67.0775 35.0745C67.2138 35.0745 67.3288 35.0488 67.4227 34.9973C67.5165 34.9458 67.5907 34.8838 67.6452 34.8111C67.7027 34.7415 67.7436 34.6688 67.7678 34.5931C67.792 34.5174 67.8041 34.4539 67.8041 34.4024L65.9922 29.1937H67.4317L68.4944 32.8402H68.5125L69.5252 29.1937H70.9012L69.1983 34.0618Z" fill="#4E2D2D"/>
<path d="M71.2236 33.1036H71.7368C71.8579 32.8766 71.9578 32.6389 72.0365 32.3907C72.1182 32.1394 72.1833 31.8866 72.2318 31.6323C72.2802 31.378 72.315 31.1297 72.3362 30.8875C72.3574 30.6423 72.3725 30.4122 72.3816 30.1973C72.3907 29.9823 72.3937 29.7886 72.3907 29.616C72.3907 29.4434 72.3922 29.3027 72.3952 29.1937H76.2643V33.1036H76.8865V35.3333H75.6785V34.1435H72.4316V35.3333H71.2236V33.1036ZM74.9837 33.1036V30.2381H73.5124C73.5124 30.329 73.5109 30.441 73.5078 30.5742C73.5078 30.7074 73.5018 30.8557 73.4897 31.0192C73.4806 31.1797 73.4654 31.3507 73.4442 31.5324C73.4261 31.714 73.3973 31.8957 73.358 32.0773C73.3216 32.259 73.2762 32.4376 73.2217 32.6132C73.1703 32.7888 73.1052 32.9522 73.0265 33.1036H74.9837Z" fill="#4E2D2D"/>
<path d="M77.3042 31.6686C77.3042 31.2872 77.3618 30.936 77.4768 30.6151C77.5949 30.2941 77.7629 30.0187 77.9809 29.7886C78.2019 29.5555 78.4683 29.3738 78.7801 29.2436C79.092 29.1134 79.4431 29.0484 79.8337 29.0484C80.2303 29.0484 80.5845 29.1134 80.8963 29.2436C81.2112 29.3738 81.4761 29.5555 81.691 29.7886C81.909 30.0187 82.0755 30.2941 82.1905 30.6151C82.3056 30.936 82.3631 31.2872 82.3631 31.6686C82.3631 32.0501 82.3056 32.4013 82.1905 32.7222C82.0755 33.0431 81.909 33.3201 81.691 33.5532C81.4761 33.7863 81.2112 33.968 80.8963 34.0981C80.5845 34.2283 80.2303 34.2934 79.8337 34.2934C79.4431 34.2934 79.092 34.2283 78.7801 34.0981C78.4683 33.968 78.2019 33.7863 77.9809 33.5532C77.7629 33.3201 77.5949 33.0431 77.4768 32.7222C77.3618 32.4013 77.3042 32.0501 77.3042 31.6686ZM78.6439 31.6686C78.6439 31.8563 78.6636 32.0425 78.7029 32.2272C78.7453 32.4088 78.8134 32.5723 78.9073 32.7176C79.0011 32.8599 79.1237 32.975 79.2751 33.0628C79.4265 33.1505 79.6127 33.1944 79.8337 33.1944C80.0638 33.1944 80.2545 33.1521 80.4059 33.0673C80.5603 32.9795 80.6829 32.866 80.7737 32.7267C80.8645 32.5844 80.9281 32.4224 80.9644 32.2408C81.0038 32.0561 81.0235 31.8654 81.0235 31.6686C81.0235 31.4749 81.0038 31.2856 80.9644 31.101C80.9281 30.9163 80.8645 30.7543 80.7737 30.6151C80.6829 30.4728 80.5603 30.3592 80.4059 30.2745C80.2545 30.1867 80.0638 30.1428 79.8337 30.1428C79.6127 30.1428 79.4265 30.1867 79.2751 30.2745C79.1237 30.3623 79.0011 30.4788 78.9073 30.6241C78.8134 30.7664 78.7453 30.9299 78.7029 31.1146C78.6636 31.2962 78.6439 31.4809 78.6439 31.6686Z" fill="#4E2D2D"/>
<path d="M84.6155 31.1373H85.6055C85.7508 31.1373 85.8719 31.1267 85.9688 31.1055C86.0657 31.0813 86.1414 31.048 86.1959 31.0056C86.2534 30.9602 86.2927 30.9057 86.3139 30.8421C86.3382 30.7755 86.3503 30.6983 86.3503 30.6105C86.3503 30.5379 86.3382 30.4713 86.3139 30.4107C86.2927 30.3471 86.2549 30.2941 86.2004 30.2518C86.1459 30.2064 86.0732 30.1715 85.9824 30.1473C85.8916 30.1201 85.7781 30.1064 85.6418 30.1064H84.6155V31.1373ZM83.3304 29.1937H85.8916C86.1187 29.1937 86.3366 29.2134 86.5455 29.2527C86.7575 29.2921 86.9436 29.3617 87.1041 29.4616C87.2645 29.5585 87.3917 29.6917 87.4856 29.8612C87.5824 30.0277 87.6309 30.2397 87.6309 30.497C87.6309 30.6453 87.6142 30.774 87.5809 30.883C87.5506 30.992 87.5083 31.0858 87.4538 31.1645C87.3993 31.2402 87.3357 31.3053 87.263 31.3598C87.1934 31.4113 87.1207 31.4552 87.0451 31.4915C87.2933 31.5793 87.4825 31.7201 87.6127 31.9138C87.7429 32.1046 87.808 32.3331 87.808 32.5996C87.808 32.8327 87.7671 33.0446 87.6854 33.2353C87.6067 33.423 87.4931 33.585 87.3448 33.7212C87.1995 33.8544 87.0208 33.9589 86.8089 34.0346C86.6 34.1072 86.3654 34.1435 86.105 34.1435H83.3304V29.1937ZM84.6155 33.2308H85.6055C85.7902 33.2308 85.9385 33.2111 86.0505 33.1717C86.1656 33.1324 86.2534 33.0824 86.3139 33.0219C86.3775 32.9613 86.4184 32.8947 86.4365 32.8221C86.4577 32.7494 86.4683 32.6813 86.4683 32.6177C86.4683 32.4966 86.4517 32.3967 86.4184 32.318C86.3881 32.2363 86.3382 32.1712 86.2685 32.1227C86.2019 32.0743 86.1126 32.041 86.0006 32.0228C85.8916 32.0047 85.7599 31.9956 85.6055 31.9956H84.6155V33.2308Z" fill="#4E2D2D"/>
<path d="M92.8441 33.1672C92.8441 33.3155 92.8517 33.4382 92.8668 33.535C92.885 33.6289 92.9077 33.7046 92.935 33.7621C92.9622 33.8166 92.9925 33.8575 93.0258 33.8847C93.0621 33.9089 93.1 33.9271 93.1393 33.9392V34.1435H91.7179C91.6937 34.086 91.6665 34.0103 91.6362 33.9165C91.6089 33.8196 91.5953 33.7031 91.5953 33.5668C91.4954 33.6698 91.397 33.7651 91.3001 33.8529C91.2063 33.9407 91.1003 34.0179 90.9823 34.0845C90.8642 34.1481 90.7279 34.198 90.5735 34.2344C90.4191 34.2737 90.233 34.2934 90.015 34.2934C89.794 34.2934 89.5896 34.2601 89.4019 34.1935C89.2173 34.1299 89.0568 34.0346 88.9206 33.9074C88.7843 33.7803 88.6784 33.6213 88.6027 33.4306C88.527 33.2399 88.4892 33.0189 88.4892 32.7676C88.4892 32.5647 88.5209 32.377 88.5845 32.2045C88.6481 32.0289 88.7374 31.876 88.8524 31.7458C88.9705 31.6126 89.1128 31.5036 89.2793 31.4188C89.4489 31.331 89.6381 31.272 89.847 31.2417L91.1049 31.0556C91.1503 31.0495 91.1987 31.0404 91.2502 31.0283C91.3047 31.0162 91.3546 30.9965 91.4 30.9693C91.4455 30.939 91.4833 30.8996 91.5136 30.8512C91.5438 30.7997 91.559 30.7316 91.559 30.6468C91.559 30.5651 91.5454 30.4909 91.5181 30.4243C91.4939 30.3547 91.4515 30.2957 91.391 30.2472C91.3304 30.1958 91.2487 30.1564 91.1457 30.1292C91.0458 30.1019 90.9202 30.0883 90.7688 30.0883C90.5963 30.0883 90.457 30.1064 90.351 30.1428C90.2481 30.1761 90.1664 30.2245 90.1058 30.2881C90.0453 30.3486 90.0014 30.4213 89.9741 30.5061C89.9469 30.5878 89.9272 30.6756 89.9151 30.7695H88.6299C88.6299 30.7089 88.639 30.6257 88.6572 30.5197C88.6784 30.4107 88.7147 30.2926 88.7662 30.1655C88.8207 30.0383 88.8948 29.9097 88.9887 29.7795C89.0856 29.6493 89.2112 29.5312 89.3656 29.4253C89.523 29.3163 89.7138 29.227 89.9378 29.1573C90.1618 29.0877 90.4297 29.0514 90.7416 29.0484C91.1836 29.0484 91.5408 29.0938 91.8133 29.1846C92.0888 29.2724 92.3022 29.3889 92.4536 29.5343C92.608 29.6765 92.7109 29.837 92.7624 30.0156C92.8169 30.1912 92.8441 30.3668 92.8441 30.5424V33.1672ZM91.559 31.7276C91.4803 31.77 91.4016 31.8094 91.3228 31.8457C91.2441 31.879 91.1397 31.9078 91.0095 31.932L90.6689 31.9956C90.5206 32.0228 90.3904 32.0546 90.2784 32.0909C90.1664 32.1273 90.0725 32.1757 89.9968 32.2363C89.9242 32.2938 89.8682 32.3649 89.8288 32.4497C89.7925 32.5345 89.7743 32.6404 89.7743 32.7676C89.7743 32.8735 89.791 32.9659 89.8243 33.0446C89.8576 33.1203 89.903 33.1838 89.9605 33.2353C90.021 33.2838 90.0907 33.3201 90.1694 33.3443C90.2481 33.3685 90.3329 33.3806 90.4237 33.3806C90.4721 33.3806 90.5342 33.3761 90.6099 33.367C90.6856 33.3549 90.7658 33.3337 90.8506 33.3034C90.9353 33.2732 91.0201 33.2323 91.1049 33.1808C91.1896 33.1263 91.2653 33.0567 91.3319 32.9719C91.3985 32.8872 91.453 32.7842 91.4954 32.6631C91.5378 32.539 91.559 32.3937 91.559 32.2272V31.7276Z" fill="#4E2D2D"/>
<path d="M94.0203 29.1937H95.3055V30.9829H97.1946V29.1937H98.4752V34.1435H97.1946V32.0228H95.3055V34.1435H94.0203V29.1937Z" fill="#4E2D2D"/>
<path d="M99.7058 29.1937H100.991V32.2453H101.009L102.812 29.1937H104.161V34.1435H102.88V31.16H102.857L101.109 34.1435H99.7058V29.1937Z" fill="#4E2D2D"/>
<path d="M106.313 32.0682C106.313 32.1136 106.318 32.1742 106.327 32.2499C106.336 32.3256 106.354 32.4073 106.381 32.4951C106.409 32.5829 106.448 32.6722 106.499 32.763C106.551 32.8508 106.619 32.9311 106.704 33.0037C106.792 33.0764 106.898 33.1354 107.022 33.1808C107.149 33.2262 107.3 33.2489 107.476 33.2489C107.567 33.2489 107.656 33.2368 107.744 33.2126C107.835 33.1854 107.918 33.1475 107.993 33.0991C108.069 33.0476 108.134 32.9871 108.189 32.9174C108.246 32.8448 108.287 32.763 108.311 32.6722H109.642C109.642 32.763 109.622 32.8675 109.583 32.9856C109.544 33.1006 109.483 33.2187 109.401 33.3398C109.323 33.4578 109.223 33.5744 109.102 33.6894C108.98 33.8045 108.837 33.9074 108.67 33.9982C108.504 34.086 108.314 34.1572 108.102 34.2117C107.894 34.2662 107.66 34.2934 107.403 34.2934C107.073 34.2934 106.763 34.2435 106.472 34.1435C106.185 34.0467 105.932 33.8923 105.714 33.6803C105.499 33.4654 105.329 33.1884 105.205 32.8493C105.081 32.5102 105.019 32.0985 105.019 31.6141C105.019 31.2781 105.063 30.9556 105.151 30.6468C105.242 30.335 105.381 30.061 105.569 29.8249C105.759 29.5888 106.001 29.4011 106.295 29.2618C106.592 29.1195 106.948 29.0484 107.362 29.0484C107.801 29.0484 108.171 29.121 108.47 29.2663C108.77 29.4086 109.011 29.6115 109.192 29.8748C109.377 30.1382 109.509 30.4561 109.587 30.8285C109.666 31.2009 109.706 31.6141 109.706 32.0682H106.313ZM108.37 31.2145C108.37 30.9965 108.337 30.8149 108.27 30.6696C108.207 30.5242 108.125 30.4092 108.025 30.3244C107.928 30.2366 107.821 30.1761 107.703 30.1428C107.585 30.1064 107.471 30.0883 107.362 30.0883C107.256 30.0883 107.144 30.1064 107.026 30.1428C106.908 30.1761 106.799 30.2366 106.699 30.3244C106.602 30.4092 106.521 30.5242 106.454 30.6696C106.39 30.8149 106.359 30.9965 106.359 31.2145H108.37Z" fill="#4E2D2D"/>
<path d="M113.157 29.1937H114.442V32.2453H114.46L116.263 29.1937H117.612V34.1435H116.331V31.16H116.308L114.56 34.1435H113.157V29.1937Z" fill="#4E2D2D"/>
<path d="M122.503 30.2381H121.004V29.1937H125.282V30.2381H123.783V34.1435H122.503V30.2381Z" fill="#4E2D2D"/>
<path d="M125.786 31.6686C125.786 31.2872 125.843 30.936 125.958 30.6151C126.076 30.2941 126.244 30.0187 126.462 29.7886C126.683 29.5555 126.95 29.3738 127.262 29.2436C127.574 29.1134 127.925 29.0484 128.315 29.0484C128.712 29.0484 129.066 29.1134 129.378 29.2436C129.693 29.3738 129.958 29.5555 130.173 29.7886C130.391 30.0187 130.557 30.2941 130.672 30.6151C130.787 30.936 130.845 31.2872 130.845 31.6686C130.845 32.0501 130.787 32.4013 130.672 32.7222C130.557 33.0431 130.391 33.3201 130.173 33.5532C129.958 33.7863 129.693 33.968 129.378 34.0981C129.066 34.2283 128.712 34.2934 128.315 34.2934C127.925 34.2934 127.574 34.2283 127.262 34.0981C126.95 33.968 126.683 33.7863 126.462 33.5532C126.244 33.3201 126.076 33.0431 125.958 32.7222C125.843 32.4013 125.786 32.0501 125.786 31.6686ZM127.125 31.6686C127.125 31.8563 127.145 32.0425 127.184 32.2272C127.227 32.4088 127.295 32.5723 127.389 32.7176C127.483 32.8599 127.605 32.975 127.757 33.0628C127.908 33.1505 128.094 33.1944 128.315 33.1944C128.545 33.1944 128.736 33.1521 128.887 33.0673C129.042 32.9795 129.164 32.866 129.255 32.7267C129.346 32.5844 129.41 32.4224 129.446 32.2408C129.485 32.0561 129.505 31.8654 129.505 31.6686C129.505 31.4749 129.485 31.2856 129.446 31.101C129.41 30.9163 129.346 30.7543 129.255 30.6151C129.164 30.4728 129.042 30.3592 128.887 30.2745C128.736 30.1867 128.545 30.1428 128.315 30.1428C128.094 30.1428 127.908 30.1867 127.757 30.2745C127.605 30.3623 127.483 30.4788 127.389 30.6241C127.295 30.7664 127.227 30.9299 127.184 31.1146C127.145 31.2962 127.125 31.4809 127.125 31.6686Z" fill="#4E2D2D"/>
<path d="M133.097 31.1373H134.087C134.232 31.1373 134.353 31.1267 134.45 31.1055C134.547 31.0813 134.623 31.048 134.677 31.0056C134.735 30.9602 134.774 30.9057 134.795 30.8421C134.82 30.7755 134.832 30.6983 134.832 30.6105C134.832 30.5379 134.82 30.4713 134.795 30.4107C134.774 30.3471 134.736 30.2941 134.682 30.2518C134.627 30.2064 134.555 30.1715 134.464 30.1473C134.373 30.1201 134.26 30.1064 134.123 30.1064H133.097V31.1373ZM131.812 29.1937H134.373C134.6 29.1937 134.818 29.2134 135.027 29.2527C135.239 29.2921 135.425 29.3617 135.586 29.4616C135.746 29.5585 135.873 29.6917 135.967 29.8612C136.064 30.0277 136.112 30.2397 136.112 30.497C136.112 30.6453 136.096 30.774 136.062 30.883C136.032 30.992 135.99 31.0858 135.935 31.1645C135.881 31.2402 135.817 31.3053 135.745 31.3598C135.675 31.4113 135.602 31.4552 135.527 31.4915C135.775 31.5793 135.964 31.7201 136.094 31.9138C136.224 32.1046 136.29 32.3331 136.29 32.5996C136.29 32.8327 136.249 33.0446 136.167 33.2353C136.088 33.423 135.975 33.585 135.826 33.7212C135.681 33.8544 135.502 33.9589 135.29 34.0346C135.082 34.1072 134.847 34.1435 134.587 34.1435H131.812V29.1937ZM133.097 33.2308H134.087C134.272 33.2308 134.42 33.2111 134.532 33.1717C134.647 33.1324 134.735 33.0824 134.795 33.0219C134.859 32.9613 134.9 32.8947 134.918 32.8221C134.939 32.7494 134.95 32.6813 134.95 32.6177C134.95 32.4966 134.933 32.3967 134.9 32.318C134.87 32.2363 134.82 32.1712 134.75 32.1227C134.683 32.0743 134.594 32.041 134.482 32.0228C134.373 32.0047 134.241 31.9956 134.087 31.9956H133.097V33.2308Z" fill="#4E2D2D"/>
<path d="M141.326 33.1672C141.326 33.3155 141.333 33.4382 141.348 33.535C141.367 33.6289 141.389 33.7046 141.417 33.7621C141.444 33.8166 141.474 33.8575 141.507 33.8847C141.544 33.9089 141.582 33.9271 141.621 33.9392V34.1435H140.199C140.175 34.086 140.148 34.0103 140.118 33.9165C140.09 33.8196 140.077 33.7031 140.077 33.5668C139.977 33.6698 139.879 33.7651 139.782 33.8529C139.688 33.9407 139.582 34.0179 139.464 34.0845C139.346 34.1481 139.21 34.198 139.055 34.2344C138.901 34.2737 138.715 34.2934 138.497 34.2934C138.276 34.2934 138.071 34.2601 137.883 34.1935C137.699 34.1299 137.538 34.0346 137.402 33.9074C137.266 33.7803 137.16 33.6213 137.084 33.4306C137.009 33.2399 136.971 33.0189 136.971 32.7676C136.971 32.5647 137.002 32.377 137.066 32.2045C137.13 32.0289 137.219 31.876 137.334 31.7458C137.452 31.6126 137.594 31.5036 137.761 31.4188C137.93 31.331 138.12 31.272 138.329 31.2417L139.586 31.0556C139.632 31.0495 139.68 31.0404 139.732 31.0283C139.786 31.0162 139.836 30.9965 139.882 30.9693C139.927 30.939 139.965 30.8996 139.995 30.8512C140.025 30.7997 140.041 30.7316 140.041 30.6468C140.041 30.5651 140.027 30.4909 140 30.4243C139.975 30.3547 139.933 30.2957 139.873 30.2472C139.812 30.1958 139.73 30.1564 139.627 30.1292C139.527 30.1019 139.402 30.0883 139.25 30.0883C139.078 30.0883 138.939 30.1064 138.833 30.1428C138.73 30.1761 138.648 30.2245 138.587 30.2881C138.527 30.3486 138.483 30.4213 138.456 30.5061C138.428 30.5878 138.409 30.6756 138.397 30.7695H137.111C137.111 30.7089 137.121 30.6257 137.139 30.5197C137.16 30.4107 137.196 30.2926 137.248 30.1655C137.302 30.0383 137.376 29.9097 137.47 29.7795C137.567 29.6493 137.693 29.5312 137.847 29.4253C138.005 29.3163 138.195 29.227 138.419 29.1573C138.643 29.0877 138.911 29.0514 139.223 29.0484C139.665 29.0484 140.022 29.0938 140.295 29.1846C140.57 29.2724 140.784 29.3889 140.935 29.5343C141.09 29.6765 141.192 29.837 141.244 30.0156C141.298 30.1912 141.326 30.3668 141.326 30.5424V33.1672ZM140.041 31.7276C139.962 31.77 139.883 31.8094 139.804 31.8457C139.726 31.879 139.621 31.9078 139.491 31.932L139.15 31.9956C139.002 32.0228 138.872 32.0546 138.76 32.0909C138.648 32.1273 138.554 32.1757 138.478 32.2363C138.406 32.2938 138.35 32.3649 138.31 32.4497C138.274 32.5345 138.256 32.6404 138.256 32.7676C138.256 32.8735 138.273 32.9659 138.306 33.0446C138.339 33.1203 138.385 33.1838 138.442 33.2353C138.503 33.2838 138.572 33.3201 138.651 33.3443C138.73 33.3685 138.814 33.3806 138.905 33.3806C138.954 33.3806 139.016 33.3761 139.091 33.367C139.167 33.3549 139.247 33.3337 139.332 33.3034C139.417 33.2732 139.502 33.2323 139.586 33.1808C139.671 33.1263 139.747 33.0567 139.813 32.9719C139.88 32.8872 139.935 32.7842 139.977 32.6631C140.019 32.539 140.041 32.3937 140.041 32.2272V31.7276Z" fill="#4E2D2D"/>
<path d="M142.466 29.1937H143.692V29.9021H143.71C143.798 29.7537 143.89 29.6266 143.987 29.5206C144.084 29.4116 144.191 29.3223 144.309 29.2527C144.427 29.1831 144.557 29.1316 144.7 29.0983C144.845 29.065 145.009 29.0484 145.19 29.0484C145.342 29.0484 145.498 29.0665 145.658 29.1028C145.818 29.1392 145.974 29.1982 146.126 29.28C146.28 29.3587 146.425 29.4631 146.562 29.5933C146.698 29.7204 146.817 29.8779 146.92 30.0656C147.023 30.2533 147.105 30.4728 147.166 30.724C147.226 30.9723 147.256 31.2569 147.256 31.5778C147.256 31.9774 147.213 32.3437 147.125 32.6768C147.04 33.0098 146.91 33.2959 146.734 33.535C146.562 33.7742 146.342 33.9604 146.076 34.0936C145.812 34.2268 145.502 34.2934 145.145 34.2934C145.021 34.2934 144.895 34.2813 144.768 34.2571C144.641 34.2329 144.517 34.192 144.396 34.1345C144.274 34.0769 144.159 33.9997 144.05 33.9029C143.944 33.803 143.851 33.6788 143.769 33.5305H143.751V36.0599H142.466V29.1937ZM144.809 30.2018C144.603 30.2018 144.429 30.2457 144.287 30.3335C144.147 30.4213 144.034 30.5348 143.946 30.6741C143.861 30.8134 143.799 30.9708 143.76 31.1464C143.72 31.322 143.701 31.496 143.701 31.6686C143.701 31.7625 143.705 31.8654 143.714 31.9774C143.726 32.0864 143.748 32.1984 143.778 32.3135C143.808 32.4255 143.849 32.5345 143.901 32.6404C143.955 32.7464 144.023 32.8402 144.105 32.922C144.187 33.0037 144.285 33.0703 144.4 33.1218C144.515 33.1702 144.651 33.1944 144.809 33.1944C144.966 33.1944 145.102 33.1702 145.217 33.1218C145.333 33.0703 145.431 33.0037 145.513 32.922C145.594 32.8402 145.661 32.7464 145.712 32.6404C145.767 32.5345 145.809 32.4255 145.84 32.3135C145.87 32.1984 145.89 32.0864 145.899 31.9774C145.911 31.8654 145.917 31.7625 145.917 31.6686C145.917 31.496 145.897 31.322 145.858 31.1464C145.818 30.9708 145.755 30.8134 145.667 30.6741C145.582 30.5348 145.469 30.4213 145.326 30.3335C145.184 30.2457 145.012 30.2018 144.809 30.2018Z" fill="#4E2D2D"/>
<path d="M153.151 29.1937H154.436V34.1435H153.151V29.1937ZM148.187 29.1937H149.473V30.9148H150.64C150.945 30.9148 151.218 30.9466 151.457 31.0101C151.699 31.0737 151.904 31.1721 152.07 31.3053C152.237 31.4385 152.364 31.6081 152.452 31.8139C152.539 32.0168 152.583 32.2574 152.583 32.536C152.583 32.7873 152.547 33.0022 152.474 33.1808C152.402 33.3594 152.308 33.5093 152.193 33.6304C152.081 33.7485 151.955 33.8423 151.816 33.9119C151.677 33.9786 151.54 34.03 151.407 34.0663C151.274 34.0997 151.15 34.1208 151.035 34.1299C150.923 34.139 150.836 34.1435 150.776 34.1435H148.187V29.1937ZM149.473 33.1763H150.413C150.512 33.1763 150.611 33.1687 150.708 33.1536C150.808 33.1354 150.897 33.1036 150.976 33.0582C151.057 33.0098 151.123 32.9447 151.171 32.8629C151.219 32.7782 151.244 32.6692 151.244 32.536C151.244 32.4058 151.218 32.2983 151.166 32.2136C151.118 32.1288 151.05 32.0622 150.962 32.0137C150.877 31.9653 150.777 31.932 150.662 31.9138C150.55 31.8926 150.431 31.882 150.304 31.882H149.473V33.1763Z" fill="#4E2D2D"/>
<path d="M157.824 33.1036H158.337C158.458 32.8766 158.558 32.6389 158.637 32.3907C158.718 32.1394 158.783 31.8866 158.832 31.6323C158.88 31.378 158.915 31.1297 158.936 30.8875C158.958 30.6423 158.973 30.4122 158.982 30.1973C158.991 29.9823 158.994 29.7886 158.991 29.616C158.991 29.4434 158.992 29.3027 158.995 29.1937H162.864V33.1036H163.487V35.3333H162.279V34.1435H159.032V35.3333H157.824V33.1036ZM161.584 33.1036V30.2381H160.113C160.113 30.329 160.111 30.441 160.108 30.5742C160.108 30.7074 160.102 30.8557 160.09 31.0192C160.081 31.1797 160.066 31.3507 160.044 31.5324C160.026 31.714 159.997 31.8957 159.958 32.0773C159.922 32.259 159.876 32.4376 159.822 32.6132C159.77 32.7888 159.705 32.9522 159.627 33.1036H161.584Z" fill="#4E2D2D"/>
<path d="M168.918 34.1435H167.637V30.2381H166.12L166.093 31.16C166.078 31.6777 166.045 32.1318 165.993 32.5224C165.942 32.9129 165.857 33.2399 165.739 33.5032C165.624 33.7636 165.467 33.9604 165.267 34.0936C165.07 34.2268 164.817 34.2934 164.508 34.2934C164.363 34.2934 164.236 34.2843 164.127 34.2662C164.018 34.251 163.929 34.2283 163.859 34.198V33.1218C163.901 33.14 163.954 33.1566 164.018 33.1717C164.085 33.1869 164.165 33.1944 164.259 33.1944C164.355 33.1944 164.442 33.1657 164.517 33.1082C164.593 33.0476 164.658 32.9401 164.713 32.7857C164.767 32.6283 164.81 32.4118 164.84 32.1364C164.87 31.8609 164.89 31.5051 164.899 31.0692L164.935 29.1937H168.918V34.1435Z" fill="#4E2D2D"/>
<path d="M174.731 34.1435H173.441V32.3225H172.601C172.416 32.3225 172.257 32.3301 172.124 32.3452C171.994 32.3574 171.886 32.3891 171.801 32.4406C171.717 32.489 171.652 32.5617 171.606 32.6586C171.564 32.7555 171.54 32.8872 171.534 33.0537L171.515 33.5305C171.509 33.6001 171.5 33.6909 171.488 33.803C171.479 33.915 171.45 34.0285 171.402 34.1435H170.044C170.083 34.0769 170.115 34.0134 170.139 33.9528C170.164 33.8892 170.182 33.8287 170.194 33.7712C170.209 33.7106 170.22 33.6501 170.226 33.5895C170.235 33.529 170.242 33.4654 170.248 33.3988L170.312 32.8039C170.327 32.6707 170.345 32.5557 170.366 32.4588C170.388 32.3619 170.422 32.2786 170.471 32.209C170.519 32.1364 170.586 32.0743 170.671 32.0228C170.756 31.9714 170.869 31.9244 171.011 31.882C170.966 31.8699 170.914 31.8533 170.857 31.8321C170.802 31.8079 170.743 31.7776 170.68 31.7413C170.619 31.7019 170.557 31.6535 170.494 31.596C170.433 31.5354 170.376 31.4612 170.321 31.3734C170.282 31.3159 170.25 31.2554 170.226 31.1918C170.205 31.1252 170.188 31.0616 170.176 31.0011C170.164 30.9375 170.156 30.8784 170.153 30.824C170.15 30.7695 170.148 30.7225 170.148 30.6832C170.148 30.5076 170.17 30.3517 170.212 30.2154C170.254 30.0762 170.309 29.9551 170.376 29.8521C170.442 29.7492 170.518 29.6614 170.603 29.5888C170.687 29.5161 170.774 29.4571 170.861 29.4116C170.958 29.3572 171.066 29.3163 171.184 29.289C171.302 29.2588 171.417 29.2376 171.529 29.2255C171.641 29.2103 171.745 29.2012 171.842 29.1982C171.939 29.1952 172.015 29.1937 172.069 29.1937H174.731V34.1435ZM173.441 30.1609H172.405C172.296 30.1609 172.187 30.164 172.079 30.17C171.97 30.1761 171.871 30.2003 171.783 30.2427C171.699 30.282 171.629 30.3456 171.574 30.4334C171.523 30.5182 171.497 30.6393 171.497 30.7967C171.497 30.9511 171.523 31.0692 171.574 31.1509C171.629 31.2327 171.697 31.2932 171.779 31.3326C171.864 31.3719 171.957 31.3946 172.06 31.4007C172.163 31.4067 172.266 31.4098 172.369 31.4098H173.441V30.1609Z" fill="#4E2D2D"/>
<path d="M181.442 30.942C181.418 30.8118 181.385 30.6983 181.342 30.6014C181.3 30.5015 181.244 30.4183 181.174 30.3517C181.108 30.282 181.025 30.2306 180.925 30.1973C180.828 30.1609 180.71 30.1428 180.57 30.1428C180.356 30.1428 180.183 30.1927 180.053 30.2926C179.926 30.3925 179.827 30.5182 179.758 30.6696C179.688 30.8209 179.641 30.9859 179.617 31.1645C179.596 31.3432 179.585 31.5112 179.585 31.6686C179.585 31.8321 179.594 32.0047 179.612 32.1863C179.63 32.3649 179.673 32.5299 179.739 32.6813C179.806 32.8296 179.904 32.9522 180.035 33.0491C180.165 33.146 180.343 33.1944 180.57 33.1944C180.719 33.1944 180.848 33.1657 180.956 33.1082C181.065 33.0476 181.156 32.9734 181.229 32.8856C181.302 32.7978 181.355 32.704 181.388 32.6041C181.424 32.5042 181.442 32.4134 181.442 32.3316H182.782C182.782 32.4134 182.767 32.5193 182.737 32.6495C182.709 32.7797 182.662 32.9174 182.596 33.0628C182.529 33.2081 182.44 33.3549 182.328 33.5032C182.219 33.6486 182.081 33.7803 181.915 33.8983C181.751 34.0134 181.559 34.1072 181.338 34.1799C181.117 34.2556 180.861 34.2934 180.57 34.2934C180.192 34.2934 179.858 34.2359 179.567 34.1208C179.279 34.0058 179.037 33.8378 178.84 33.6168C178.647 33.3927 178.498 33.1172 178.395 32.7903C178.295 32.4633 178.245 32.0894 178.245 31.6686C178.245 31.2478 178.3 30.8754 178.409 30.5515C178.521 30.2245 178.678 29.9505 178.881 29.7295C179.084 29.5055 179.328 29.336 179.612 29.2209C179.9 29.1059 180.219 29.0484 180.57 29.0484C180.722 29.0484 180.878 29.0605 181.038 29.0847C181.202 29.1089 181.362 29.1513 181.52 29.2118C181.677 29.2694 181.827 29.345 181.969 29.4389C182.114 29.5327 182.243 29.6508 182.355 29.7931C182.47 29.9324 182.564 30.0974 182.637 30.2881C182.712 30.4758 182.761 30.6938 182.782 30.942H181.442Z" fill="#4E2D2D"/>
<path d="M188.681 29.1937H189.966V34.1435H188.681V29.1937ZM183.718 29.1937H185.003V30.9148H186.17C186.476 30.9148 186.748 30.9466 186.987 31.0101C187.229 31.0737 187.434 31.1721 187.6 31.3053C187.767 31.4385 187.894 31.6081 187.982 31.8139C188.069 32.0168 188.113 32.2574 188.113 32.536C188.113 32.7873 188.077 33.0022 188.004 33.1808C187.932 33.3594 187.838 33.5093 187.723 33.6304C187.611 33.7485 187.485 33.8423 187.346 33.9119C187.207 33.9786 187.07 34.03 186.937 34.0663C186.804 34.0997 186.68 34.1208 186.565 34.1299C186.453 34.139 186.367 34.1435 186.306 34.1435H183.718V29.1937ZM185.003 33.1763H185.943C186.043 33.1763 186.141 33.1687 186.238 33.1536C186.338 33.1354 186.427 33.1036 186.506 33.0582C186.588 33.0098 186.653 32.9447 186.701 32.8629C186.75 32.7782 186.774 32.6692 186.774 32.536C186.774 32.4058 186.748 32.2983 186.697 32.2136C186.648 32.1288 186.58 32.0622 186.492 32.0137C186.407 31.9653 186.308 31.932 186.192 31.9138C186.08 31.8926 185.961 31.882 185.834 31.882H185.003V33.1763Z" fill="#4E2D2D"/>
<path d="M191.156 29.1937H192.382V29.9021H192.4C192.488 29.7537 192.58 29.6266 192.677 29.5206C192.774 29.4116 192.882 29.3223 193 29.2527C193.118 29.1831 193.248 29.1316 193.39 29.0983C193.536 29.065 193.699 29.0484 193.881 29.0484C194.032 29.0484 194.188 29.0665 194.348 29.1028C194.509 29.1392 194.665 29.1982 194.816 29.28C194.971 29.3587 195.116 29.4631 195.252 29.5933C195.388 29.7204 195.508 29.8779 195.611 30.0656C195.714 30.2533 195.796 30.4728 195.856 30.724C195.917 30.9723 195.947 31.2569 195.947 31.5778C195.947 31.9774 195.903 32.3437 195.815 32.6768C195.73 33.0098 195.6 33.2959 195.425 33.535C195.252 33.7742 195.033 33.9604 194.766 34.0936C194.503 34.2268 194.193 34.2934 193.835 34.2934C193.711 34.2934 193.585 34.2813 193.458 34.2571C193.331 34.2329 193.207 34.192 193.086 34.1345C192.965 34.0769 192.85 33.9997 192.741 33.9029C192.635 33.803 192.541 33.6788 192.459 33.5305H192.441V36.0599H191.156V29.1937ZM193.499 30.2018C193.293 30.2018 193.119 30.2457 192.977 30.3335C192.838 30.4213 192.724 30.5348 192.636 30.6741C192.552 30.8134 192.49 30.9708 192.45 31.1464C192.411 31.322 192.391 31.496 192.391 31.6686C192.391 31.7625 192.396 31.8654 192.405 31.9774C192.417 32.0864 192.438 32.1984 192.468 32.3135C192.499 32.4255 192.54 32.5345 192.591 32.6404C192.645 32.7464 192.714 32.8402 192.795 32.922C192.877 33.0037 192.975 33.0703 193.09 33.1218C193.206 33.1702 193.342 33.1944 193.499 33.1944C193.657 33.1944 193.793 33.1702 193.908 33.1218C194.023 33.0703 194.121 33.0037 194.203 32.922C194.285 32.8402 194.351 32.7464 194.403 32.6404C194.457 32.5345 194.5 32.4255 194.53 32.3135C194.56 32.1984 194.58 32.0864 194.589 31.9774C194.601 31.8654 194.607 31.7625 194.607 31.6686C194.607 31.496 194.588 31.322 194.548 31.1464C194.509 30.9708 194.445 30.8134 194.357 30.6741C194.273 30.5348 194.159 30.4213 194.017 30.3335C193.875 30.2457 193.702 30.2018 193.499 30.2018Z" fill="#4E2D2D"/>
<path d="M196.583 31.6686C196.583 31.2872 196.64 30.936 196.755 30.6151C196.873 30.2941 197.041 30.0187 197.259 29.7886C197.48 29.5555 197.747 29.3738 198.059 29.2436C198.37 29.1134 198.722 29.0484 199.112 29.0484C199.509 29.0484 199.863 29.1134 200.175 29.2436C200.49 29.3738 200.754 29.5555 200.969 29.7886C201.187 30.0187 201.354 30.2941 201.469 30.6151C201.584 30.936 201.642 31.2872 201.642 31.6686C201.642 32.0501 201.584 32.4013 201.469 32.7222C201.354 33.0431 201.187 33.3201 200.969 33.5532C200.754 33.7863 200.49 33.968 200.175 34.0981C199.863 34.2283 199.509 34.2934 199.112 34.2934C198.722 34.2934 198.37 34.2283 198.059 34.0981C197.747 33.968 197.48 33.7863 197.259 33.5532C197.041 33.3201 196.873 33.0431 196.755 32.7222C196.64 32.4013 196.583 32.0501 196.583 31.6686ZM197.922 31.6686C197.922 31.8563 197.942 32.0425 197.981 32.2272C198.024 32.4088 198.092 32.5723 198.186 32.7176C198.28 32.8599 198.402 32.975 198.554 33.0628C198.705 33.1505 198.891 33.1944 199.112 33.1944C199.342 33.1944 199.533 33.1521 199.684 33.0673C199.839 32.9795 199.961 32.866 200.052 32.7267C200.143 32.5844 200.207 32.4224 200.243 32.2408C200.282 32.0561 200.302 31.8654 200.302 31.6686C200.302 31.4749 200.282 31.2856 200.243 31.101C200.207 30.9163 200.143 30.7543 200.052 30.6151C199.961 30.4728 199.839 30.3592 199.684 30.2745C199.533 30.1867 199.342 30.1428 199.112 30.1428C198.891 30.1428 198.705 30.1867 198.554 30.2745C198.402 30.3623 198.28 30.4788 198.186 30.6241C198.092 30.7664 198.024 30.9299 197.981 31.1146C197.942 31.2962 197.922 31.4809 197.922 31.6686Z" fill="#4E2D2D"/>
<path d="M202.146 33.1036H202.659C202.78 32.8766 202.88 32.6389 202.958 32.3907C203.04 32.1394 203.105 31.8866 203.154 31.6323C203.202 31.378 203.237 31.1297 203.258 30.8875C203.279 30.6423 203.295 30.4122 203.304 30.1973C203.313 29.9823 203.316 29.7886 203.313 29.616C203.313 29.4434 203.314 29.3027 203.317 29.1937H207.186V33.1036H207.808V35.3333H206.6V34.1435H203.354V35.3333H202.146V33.1036ZM205.906 33.1036V30.2381H204.434C204.434 30.329 204.433 30.441 204.43 30.5742C204.43 30.7074 204.424 30.8557 204.412 31.0192C204.403 31.1797 204.387 31.3507 204.366 31.5324C204.348 31.714 204.319 31.8957 204.28 32.0773C204.244 32.259 204.198 32.4376 204.144 32.6132C204.092 32.7888 204.027 32.9522 203.948 33.1036H205.906Z" fill="#4E2D2D"/>
<path d="M209.443 32.0682C209.443 32.1136 209.448 32.1742 209.457 32.2499C209.466 32.3256 209.484 32.4073 209.511 32.4951C209.539 32.5829 209.578 32.6722 209.629 32.763C209.681 32.8508 209.749 32.9311 209.834 33.0037C209.922 33.0764 210.028 33.1354 210.152 33.1808C210.279 33.2262 210.43 33.2489 210.606 33.2489C210.697 33.2489 210.786 33.2368 210.874 33.2126C210.965 33.1854 211.048 33.1475 211.124 33.0991C211.199 33.0476 211.264 32.9871 211.319 32.9174C211.376 32.8448 211.417 32.763 211.441 32.6722H212.772C212.772 32.763 212.752 32.8675 212.713 32.9856C212.674 33.1006 212.613 33.2187 212.531 33.3398C212.453 33.4578 212.353 33.5744 212.232 33.6894C212.11 33.8045 211.967 33.9074 211.8 33.9982C211.634 34.086 211.444 34.1572 211.232 34.2117C211.024 34.2662 210.79 34.2934 210.533 34.2934C210.203 34.2934 209.893 34.2435 209.602 34.1435C209.315 34.0467 209.062 33.8923 208.844 33.6803C208.629 33.4654 208.459 33.1884 208.335 32.8493C208.211 32.5102 208.149 32.0985 208.149 31.6141C208.149 31.2781 208.193 30.9556 208.281 30.6468C208.372 30.335 208.511 30.061 208.699 29.8249C208.889 29.5888 209.131 29.4011 209.425 29.2618C209.722 29.1195 210.078 29.0484 210.492 29.0484C210.931 29.0484 211.301 29.121 211.6 29.2663C211.9 29.4086 212.141 29.6115 212.322 29.8748C212.507 30.1382 212.639 30.4561 212.717 30.8285C212.796 31.2009 212.836 31.6141 212.836 32.0682H209.443ZM211.5 31.2145C211.5 30.9965 211.467 30.8149 211.401 30.6696C211.337 30.5242 211.255 30.4092 211.155 30.3244C211.058 30.2366 210.951 30.1761 210.833 30.1428C210.715 30.1064 210.601 30.0883 210.492 30.0883C210.386 30.0883 210.274 30.1064 210.156 30.1428C210.038 30.1761 209.929 30.2366 209.829 30.3244C209.732 30.4092 209.651 30.5242 209.584 30.6696C209.52 30.8149 209.489 30.9965 209.489 31.2145H211.5Z" fill="#4E2D2D"/>
<path d="M218.417 34.1435H217.136V30.2381H215.619L215.592 31.16C215.577 31.6777 215.544 32.1318 215.492 32.5224C215.441 32.9129 215.356 33.2399 215.238 33.5032C215.123 33.7636 214.965 33.9604 214.766 34.0936C214.569 34.2268 214.316 34.2934 214.007 34.2934C213.862 34.2934 213.735 34.2843 213.626 34.2662C213.517 34.251 213.427 34.2283 213.358 34.198V33.1218C213.4 33.14 213.453 33.1566 213.517 33.1717C213.583 33.1869 213.664 33.1944 213.757 33.1944C213.854 33.1944 213.941 33.1657 214.016 33.1082C214.092 33.0476 214.157 32.9401 214.212 32.7857C214.266 32.6283 214.308 32.4118 214.339 32.1364C214.369 31.8609 214.389 31.5051 214.398 31.0692L214.434 29.1937H218.417V34.1435Z" fill="#4E2D2D"/>
<path d="M219.765 29.1937H221.051V32.2453H221.069L222.872 29.1937H224.22V34.1435H222.94V31.16H222.917L221.169 34.1435H219.765V29.1937Z" fill="#4E2D2D"/>
<path d="M229.915 34.1435H228.625V32.3225H227.785C227.6 32.3225 227.441 32.3301 227.308 32.3452C227.178 32.3574 227.071 32.3891 226.986 32.4406C226.901 32.489 226.836 32.5617 226.791 32.6586C226.748 32.7555 226.724 32.8872 226.718 33.0537L226.7 33.5305C226.694 33.6001 226.685 33.6909 226.672 33.803C226.663 33.915 226.635 34.0285 226.586 34.1435H225.228C225.268 34.0769 225.3 34.0134 225.324 33.9528C225.348 33.8892 225.366 33.8287 225.378 33.7712C225.393 33.7106 225.404 33.6501 225.41 33.5895C225.419 33.529 225.427 33.4654 225.433 33.3988L225.496 32.8039C225.511 32.6707 225.53 32.5557 225.551 32.4588C225.572 32.3619 225.607 32.2786 225.655 32.209C225.704 32.1364 225.77 32.0743 225.855 32.0228C225.94 31.9714 226.053 31.9244 226.196 31.882C226.15 31.8699 226.099 31.8533 226.041 31.8321C225.987 31.8079 225.928 31.7776 225.864 31.7413C225.804 31.7019 225.742 31.6535 225.678 31.596C225.617 31.5354 225.56 31.4612 225.505 31.3734C225.466 31.3159 225.434 31.2554 225.41 31.1918C225.389 31.1252 225.372 31.0616 225.36 31.0011C225.348 30.9375 225.34 30.8784 225.337 30.824C225.334 30.7695 225.333 30.7225 225.333 30.6832C225.333 30.5076 225.354 30.3517 225.396 30.2154C225.439 30.0762 225.493 29.9551 225.56 29.8521C225.626 29.7492 225.702 29.6614 225.787 29.5888C225.872 29.5161 225.958 29.4571 226.046 29.4116C226.143 29.3572 226.25 29.3163 226.368 29.289C226.486 29.2588 226.601 29.2376 226.713 29.2255C226.825 29.2103 226.93 29.2012 227.027 29.1982C227.124 29.1952 227.199 29.1937 227.254 29.1937H229.915V34.1435ZM228.625 30.1609H227.59C227.481 30.1609 227.372 30.164 227.263 30.17C227.154 30.1761 227.055 30.2003 226.968 30.2427C226.883 30.282 226.813 30.3456 226.759 30.4334C226.707 30.5182 226.682 30.6393 226.682 30.7967C226.682 30.9511 226.707 31.0692 226.759 31.1509C226.813 31.2327 226.881 31.2932 226.963 31.3326C227.048 31.3719 227.142 31.3946 227.245 31.4007C227.348 31.4067 227.451 31.4098 227.553 31.4098H228.625V30.1609Z" fill="#4E2D2D"/>
<path d="M28.6579 14.797C25.2241 11.654 21.8224 8.51102 18.3565 5.40009C17.8751 4.98316 17.2654 4.56623 16.6556 4.47002C13.3181 3.79652 10.2694 4.30966 7.76622 6.84331C7.4774 7.09988 7.25276 7.42059 7.06021 7.70923C6.86766 7.96581 6.73929 8.28652 6.51465 8.67138C7.02812 8.83173 7.44531 8.99209 7.8625 9.15245C11.6493 10.4674 15.4361 11.7823 19.223 13.0652C19.8969 13.2897 20.3462 13.8028 20.7954 14.4122C21.0201 14.7008 21.7903 14.9574 22.1433 14.8932C23.106 14.6687 23.8442 14.7008 24.7427 15.0215C26.7966 15.7271 28.8184 16.4327 30.9685 16.9779C30.1983 16.2402 29.4281 15.5026 28.6579 14.797ZM16.8482 8.12616C16.6556 8.70345 15.5324 8.83173 14.3771 8.41481C13.2218 7.99788 12.4516 7.19609 12.6442 6.61881C12.8367 6.04152 13.9599 5.91323 15.1152 6.33016C16.2705 6.74709 17.0407 7.54888 16.8482 8.12616ZM23.6195 12.6162C23.4591 13.0652 22.6568 13.2255 21.8545 12.9369C21.0522 12.6482 20.5387 12.0389 20.6992 11.5899C20.8596 11.1409 21.6619 10.9805 22.4642 11.2692C23.2665 11.5257 23.78 12.1351 23.6195 12.6162Z" fill="#FD9339"/>
<path d="M32.7011 19.3514C29.7808 18.3252 26.8604 17.3309 23.9401 16.3047C23.2983 16.0802 22.849 16.2726 22.143 16.465C21.3407 16.6895 20.41 16.3688 19.8324 15.7594C19.5435 15.4387 19.2868 14.7332 18.9017 14.5728C14.8261 13.1296 10.7183 11.7184 6.61059 10.3073C6.41804 10.2432 6.22549 10.2111 5.96876 10.179C5.74412 10.8525 5.51948 11.4939 5.29483 12.1674C7.25243 14.0597 6.89942 17.2668 3.30515 17.9403C2.85586 19.2873 2.37449 20.6664 1.92521 22.0775C1.34756 23.8414 0.737813 25.6054 0.160163 27.3693C-0.128662 28.2994 -0.0644788 28.4597 0.834089 28.8125C1.5722 29.1012 2.3424 29.3257 3.08051 29.5822C7.38079 31.0575 11.6811 32.5649 15.9814 34.0402C16.3344 34.1684 16.6874 34.2967 16.9762 34.3929C19.9607 32.2121 21.9504 32.9177 22.7527 36.3814C24.0043 36.8304 25.3521 37.2794 26.6679 37.7284C27.2456 37.9208 27.6306 37.7284 27.8232 37.119C28.1441 36.0927 28.5292 35.0344 28.8822 33.9439C27.4381 33.0139 26.5074 31.7952 27.0851 30.0312C27.6627 28.2673 29.1069 27.7862 30.8077 27.9787C31.7384 25.2205 32.637 22.4944 33.5676 19.7042C33.2788 19.6401 32.99 19.4797 32.7011 19.3514ZM6.48223 26.9524C6.41804 27.1127 6.32177 27.2731 6.1934 27.4014C5.8083 27.7862 5.19856 27.9787 4.653 27.8183C3.97907 27.6259 3.56188 26.8882 3.62607 26.1827C3.62607 26.0864 3.65816 25.9902 3.69025 25.894C3.72234 25.7337 3.81862 25.6054 3.94698 25.4771C3.94698 25.445 3.97907 25.445 3.97907 25.4129C4.17162 25.2205 4.39627 25.0922 4.653 24.996C4.68509 24.996 4.74927 24.9639 4.78137 24.9639C5.07019 24.8998 5.35902 24.8998 5.61575 24.996C5.8083 25.0602 5.96876 25.1564 6.09713 25.3167C6.16131 25.3809 6.22549 25.445 6.28968 25.5412C6.45013 25.7978 6.54641 26.0864 6.5785 26.3751C6.5785 26.5675 6.54641 26.7599 6.48223 26.9524ZM16.0135 21.8851C15.6284 22.1417 15.1791 22.302 14.6977 22.3341C14.6656 22.3341 14.6335 22.3341 14.6335 22.3341C14.441 22.3341 14.2484 22.3341 14.0238 22.302C13.8312 22.2699 13.6066 22.2379 13.414 22.1417C13.2215 22.0775 13.061 21.9813 12.9006 21.8851C12.0983 21.404 11.5848 20.506 11.4885 19.5439C11.4564 19.159 11.4885 18.7742 11.6169 18.4214C11.7453 18.0686 11.9057 17.7799 12.0983 17.4913C12.1304 17.4272 12.1625 17.363 12.1945 17.3309C12.355 17.1385 12.5796 16.9461 12.7722 16.8178C12.9327 16.6895 13.1252 16.5933 13.2857 16.5292C13.9275 16.2726 14.6335 16.2084 15.3716 16.465C16.5269 16.8819 17.265 17.9082 17.3292 19.0628C17.3613 19.4477 17.2971 19.8646 17.1688 20.2494C17.1046 20.4419 17.0083 20.6343 16.912 20.8267C16.7195 21.3078 16.3986 21.6285 16.0135 21.8851ZM18.6771 29.9671C17.618 29.9671 16.7516 29.1012 16.7516 28.0428C16.7516 26.9844 17.618 26.1185 18.6771 26.1185C19.7361 26.1185 20.6026 26.9844 20.6026 28.0428C20.6026 29.1012 19.7361 29.9671 18.6771 29.9671ZM26.9567 23.6169C26.8605 23.9697 26.6358 24.2584 26.3149 24.4508C26.2507 24.4829 26.1865 24.547 26.0903 24.5791C25.7693 24.7074 25.4163 24.7715 25.0954 24.6753C24.4215 24.4508 24.0043 23.7773 24.0685 23.0717C24.0685 23.0397 24.0685 23.0397 24.0685 23.0076C24.0685 22.9434 24.1006 22.8472 24.1327 22.7831C24.1968 22.5907 24.2931 22.3982 24.4215 22.2699C24.614 22.0454 24.8708 21.8851 25.1596 21.8209C25.4484 21.7568 25.7372 21.7568 26.0261 21.853C26.2186 21.9172 26.3791 22.0134 26.5074 22.1417C26.8604 22.4624 27.053 22.9114 27.0209 23.3924C26.9888 23.4245 26.9888 23.5207 26.9567 23.6169Z" fill="#FD9339"/>
</svg>
