<svg width="32" height="32" viewBox="0 0 32 32" fill="none" xmlns="http://www.w3.org/2000/svg">
<g id="Sberbank">
<path id="Vector" d="M28.6622 6.2168C29.4223 7.19948 30.0657 8.26709 30.5795 9.39818L16.0051 20.1423L9.91406 16.3239V11.7302L16.0051 15.5486L28.6622 6.2168Z" fill="#21A038"/>
<path id="Vector_2" d="M3.69636 16C3.69636 15.7938 3.70139 15.5891 3.71144 15.3855L0.0201037 15.2046C0.00753956 15.4684 4.46081e-06 15.7348 4.46081e-06 16.0037C-0.0015661 18.1043 0.411601 20.1846 1.21582 22.1251C2.02002 24.0657 3.19944 25.8283 4.68642 27.3119L7.30478 24.6947C6.16016 23.5547 5.25212 22.1996 4.63287 20.7075C4.01362 19.2153 3.69535 17.6155 3.69636 16Z" fill="url(#paint0_linear_9174_5818)"/>
<path id="Vector_3" d="M16.0006 3.69599C16.2066 3.69599 16.4113 3.70353 16.6149 3.71358L16.7996 0.0208113C16.5349 0.00824658 16.2685 0.00196499 16.0006 0.00196499C13.899 -0.000597904 11.8178 0.411993 9.87618 1.21605C7.93459 2.0201 6.17095 3.19978 4.68652 4.68736L7.30488 7.30584C8.44493 6.16079 9.80007 5.25239 11.2924 4.63288C12.7847 4.01338 14.3847 3.69497 16.0006 3.69599Z" fill="url(#paint1_linear_9174_5818)"/>
<path id="Vector_4" d="M15.9995 28.3048C15.7935 28.3048 15.5887 28.3048 15.3839 28.2885L15.1992 31.98C15.4647 31.9934 15.7315 32.0002 15.9995 32.0002C18.1002 32.0023 20.1804 31.5895 22.121 30.7852C24.0615 29.9809 25.824 28.801 27.3073 27.3135L24.694 24.6963C23.5537 25.8407 22.1987 26.7486 20.7067 27.3679C19.2147 27.9872 17.615 28.3056 15.9995 28.3048Z" fill="url(#paint2_linear_9174_5818)"/>
<path id="Vector_5" d="M22.9346 5.84262L26.0455 3.54956C23.2021 1.24702 19.6529 -0.00639159 15.9941 2.45106e-05V3.69531C18.4717 3.69223 20.8917 4.44098 22.9346 5.84262Z" fill="url(#paint3_linear_9174_5818)"/>
<path id="Vector_6" d="M32.0003 16.0001C32.0023 15.0388 31.9182 14.0791 31.7489 13.1328L28.3052 15.6709C28.3052 15.7803 28.3052 15.8895 28.3052 16.0001C28.3061 17.7193 27.9457 19.4195 27.2475 20.9905C26.5492 22.5615 25.5286 23.9682 24.252 25.1195L26.7359 27.865C28.3957 26.3665 29.722 24.536 30.6289 22.492C31.5359 20.448 32.003 18.2362 32.0003 16.0001Z" fill="#21A038"/>
<path id="Vector_7" d="M15.9991 28.3049C14.2798 28.3054 12.5796 27.9449 11.0085 27.2467C9.4374 26.5485 8.03045 25.528 6.87876 24.2515L4.13477 26.7343C5.63298 28.3944 7.46338 29.721 9.50728 30.6282C11.5512 31.5353 13.7629 32.0027 15.9991 32.0001V28.3049Z" fill="url(#paint4_linear_9174_5818)"/>
<path id="Vector_8" d="M7.74956 6.88016L5.26689 4.13477C3.60663 5.63295 2.2798 7.4634 1.37245 9.50739C0.465117 11.5514 -0.00247372 13.7633 9.84166e-06 15.9996H3.69637C3.69561 14.2805 4.05603 12.5803 4.75425 11.0093C5.45249 9.43833 6.47296 8.03156 7.74956 6.88016Z" fill="url(#paint5_linear_9174_5818)"/>
</g>
<defs>
<linearGradient id="paint0_linear_9174_5818" x1="5.43398" y1="26.8509" x2="1.39553" y2="15.1771" gradientUnits="userSpaceOnUse">
<stop offset="0.14" stop-color="#F1E813"/>
<stop offset="0.3" stop-color="#E6E418"/>
<stop offset="0.58" stop-color="#C9DA26"/>
<stop offset="0.89" stop-color="#A2CC39"/>
</linearGradient>
<linearGradient id="paint1_linear_9174_5818" x1="5.7419" y1="5.34072" x2="16.1438" y2="1.37688" gradientUnits="userSpaceOnUse">
<stop offset="0.06" stop-color="#0FA7DF"/>
<stop offset="0.54" stop-color="#0098F8"/>
<stop offset="0.92" stop-color="#0290EA"/>
</linearGradient>
<linearGradient id="paint2_linear_9174_5818" x1="14.9555" y1="29.7699" x2="26.718" y2="27.1127" gradientUnits="userSpaceOnUse">
<stop offset="0.12" stop-color="#A2CC39"/>
<stop offset="0.28" stop-color="#86C239"/>
<stop offset="0.87" stop-color="#219F38"/>
</linearGradient>
<linearGradient id="paint3_linear_9174_5818" x1="15.2253" y1="1.23765" x2="25.2816" y2="4.34086" gradientUnits="userSpaceOnUse">
<stop offset="0.06" stop-color="#0290EA"/>
<stop offset="0.79" stop-color="#0C89CA"/>
</linearGradient>
<linearGradient id="paint4_linear_9174_5818" x1="5.06199" y1="26.2844" x2="16.008" y2="30.3751" gradientUnits="userSpaceOnUse">
<stop offset="0.13" stop-color="#F1E813"/>
<stop offset="0.3" stop-color="#EAE616"/>
<stop offset="0.53" stop-color="#D8DF1F"/>
<stop offset="0.8" stop-color="#BAD52D"/>
<stop offset="0.98" stop-color="#A2CC39"/>
</linearGradient>
<linearGradient id="paint5_linear_9174_5818" x1="1.37703" y1="16.4469" x2="5.77108" y2="5.01696" gradientUnits="userSpaceOnUse">
<stop offset="0.07" stop-color="#A2CC39"/>
<stop offset="0.26" stop-color="#81C45E"/>
<stop offset="0.92" stop-color="#0FA7DF"/>
</linearGradient>
</defs>
</svg>
