<svg width="32" height="32" viewBox="0 0 32 32" fill="none" xmlns="http://www.w3.org/2000/svg">
<g id="Visa">
<circle id="Ellipse 60" cx="16" cy="16" r="16" fill="#F2F2F2"/>
<g id="g4158">
<path id="polygon9" d="M14.2671 20.3292H12.2646L13.5171 12.585H15.5194L14.2671 20.3292Z" fill="#00579F"/>
<path id="path11" d="M21.5257 12.774C21.1308 12.6173 20.5043 12.4443 19.7297 12.4443C17.7523 12.4443 16.3598 13.4988 16.3512 15.0064C16.3348 16.1187 17.3482 16.7365 18.1062 17.1074C18.8809 17.4863 19.1442 17.7337 19.1442 18.0715C19.1364 18.5903 18.5182 18.8294 17.9417 18.8294C17.1423 18.8294 16.7139 18.7061 16.0629 18.4175L15.7993 18.2938L15.519 20.0322C15.9887 20.2461 16.854 20.436 17.7523 20.4443C19.8534 20.4443 21.2212 19.4062 21.2374 17.7996C21.2454 16.918 20.7103 16.2425 19.5566 15.6905C18.8563 15.3362 18.4273 15.0973 18.4273 14.7347C18.4356 14.4051 18.7901 14.0675 19.5807 14.0675C20.2317 14.051 20.71 14.2075 21.0723 14.3641L21.2534 14.4463L21.5257 12.774Z" fill="#00579F"/>
<path id="path13" d="M24.1874 17.5857C24.3523 17.1408 24.9869 15.4189 24.9869 15.4189C24.9785 15.4354 25.1514 14.9658 25.2503 14.6775L25.3903 15.3448C25.3903 15.3448 25.7695 17.1985 25.8518 17.5857C25.5388 17.5857 24.5829 17.5857 24.1874 17.5857ZM26.6591 12.585H25.1103C24.6326 12.585 24.2698 12.7249 24.0637 13.2275L21.0894 20.3291H23.1904C23.1904 20.3291 23.5363 19.3732 23.6107 19.1674C23.8412 19.1674 25.8851 19.1674 26.1816 19.1674C26.2391 19.4393 26.4205 20.3291 26.4205 20.3291H28.2746L26.6591 12.585Z" fill="#00579F"/>
<path id="path15" d="M10.5922 12.585L8.63119 17.8658L8.4169 16.7948C8.05435 15.559 6.91731 14.2163 5.64844 13.5487L7.44466 20.321H9.56215L12.7096 12.585H10.5922Z" fill="#00579F"/>
<path id="path17" d="M6.80982 12.585H3.58813L3.55518 12.7414C6.06829 13.3841 7.73267 14.9332 8.4165 16.7951L7.71614 13.2359C7.60084 12.7413 7.2465 12.6013 6.80982 12.585Z" fill="#FAA61A"/>
</g>
</g>
</svg>
